<svg id="etgFL4dhsqx1" xmlns="http://www.w3.org/2000/svg" xmlns:xlink="http://www.w3.org/1999/xlink" viewBox="0 0 300 300" shape-rendering="geometricPrecision" text-rendering="geometricPrecision"><line x1="-9.372652" y1="0" x2="9.372652" y2="0" transform="translate(161.02778 75.787319)" fill="none" stroke="#fff" stroke-width="10" stroke-linecap="round"/><line x1="-9.372652" y1="0" x2="9.372652" y2="0" transform="matrix(1.240001 0 0-1 184.02253 144.020263)" fill="none" stroke="#fff" stroke-width="10" stroke-linecap="round"/><line x1="-9.372652" y1="0" x2="6.551193" y2="0" transform="matrix(1.701609 0 0-1 89.611326 149.981239)" fill="none" stroke="#fff" stroke-width="10" stroke-linecap="round"/><line x1="0" y1="-40.096226" x2="0" y2="40.096227" transform="matrix(1 0 0 0.850397 170.400432 109.922552)" fill="none" stroke="#fff" stroke-width="10" stroke-linecap="round"/><line x1="0" y1="-40.096226" x2="0" y2="40.096227" transform="matrix(-1 0 0 0.402183 104.416928 133.892741)" fill="none" stroke="#fff" stroke-width="10" stroke-linecap="round"/><line x1="0" y1="-40.096226" x2="0" y2="40.096227" transform="matrix(-1 0 0 0.402183 69.925541 166.107259)" fill="none" stroke="#fff" stroke-width="10" stroke-linecap="round"/><path d="M113.11797,122.21931c-5.71955,0-10.35617-7.48831-10.35617-16.72562v-61.02488c0-9.2373,4.63661-16.72561,10.35617-16.72561h73.76406c5.71955,0,10.35617,7.48831,10.35617,16.72561v61.02488c0,9.2373-4.63661,16.72562-10.35617,16.72562h-73.76406Z" transform="translate(-80.074459 149.231426)" fill="#fff" stroke="#fff" stroke-width="7"/><path d="M113.11797,122.21931c-5.71955,0-10.35617-7.48831-10.35617-16.72562v-61.02488c0-9.2373,4.63661-16.72561,10.35617-16.72561h73.76406c5.71955,0,10.35617,7.48831,10.35617,16.72561v61.02488c0,9.2373-4.63661,16.72562-10.35617,16.72562h-73.76406Z" transform="translate(88.633383 69.039008)" fill="#fff" stroke="#fff" stroke-width="7"/><path d="M113.11797,122.21931c-5.71955,0-10.35617-7.48831-10.35617-16.72562v-61.02488c0-9.2373,4.63661-16.72561,10.35617-16.72561h73.76406c5.71955,0,10.35617,7.48831,10.35617,16.72561v61.02488c0,9.2373-4.63661,16.72562-10.35617,16.72562h-73.76406Z" transform="translate(-45.583072 0.806064)" fill="#536aec" stroke="#fff" stroke-width="7"/><line x1="-47.425648" y1="-0.187454" x2="47.425648" y2="0.187453" transform="matrix(1.041528 0 0 1 104.22948 45.907253)" fill="none" stroke="#fff" stroke-width="5"/><line x1="-47.425648" y1="-0.187454" x2="49.424352" y2="0.187453" transform="matrix(1.051593 0 0 1 68.926189 193.620328)" fill="none" stroke="#536aec" stroke-width="5"/><line x1="-47.425648" y1="-0.187454" x2="47.425648" y2="0.187453" transform="matrix(1.08798 0 0 1 238.820831 114.140195)" fill="none" stroke="#536aec" stroke-width="5"/></svg>
