<svg id="eNB2XTLQYiA1" xmlns="http://www.w3.org/2000/svg" xmlns:xlink="http://www.w3.org/1999/xlink" viewBox="0 0 300 300" shape-rendering="geometricPrecision" text-rendering="geometricPrecision"><line x1="-9.372652" y1="0" x2="9.372652" y2="0" transform="translate(157.772216 75.787319)" fill="none" stroke="#212121" stroke-width="10" stroke-linecap="round"/><line x1="-9.372652" y1="0" x2="9.372652" y2="0" transform="matrix(1.240001 0 0-1 180.766966 144.020263)" fill="none" stroke="#212121" stroke-width="10" stroke-linecap="round"/><line x1="-9.372652" y1="0" x2="6.551193" y2="0" transform="matrix(1.701609 0 0-1 86.355762 149.981239)" fill="none" stroke="#212121" stroke-width="10" stroke-linecap="round"/><line x1="0" y1="-40.096226" x2="0" y2="40.096227" transform="matrix(1 0 0 0.850397 167.144868 109.922552)" fill="none" stroke="#212121" stroke-width="10" stroke-linecap="round"/><line x1="0" y1="-40.096226" x2="0" y2="40.096227" transform="matrix(-1 0 0 0.402183 101.161364 133.892741)" fill="none" stroke="#212121" stroke-width="10" stroke-linecap="round"/><line x1="0" y1="-40.096226" x2="0" y2="40.096227" transform="matrix(-1 0 0 0.402183 66.669977 166.107259)" fill="none" stroke="#212121" stroke-width="10" stroke-linecap="round"/><path d="M113.11797,122.21931c-5.71955,0-10.35617-7.48831-10.35617-16.72562v-61.02488c0-9.2373,4.63661-16.72561,10.35617-16.72561h73.76406c5.71955,0,10.35617,7.48831,10.35617,16.72561v61.02488c0,9.2373-4.63661,16.72562-10.35617,16.72562h-73.76406Z" transform="translate(-83.330023 149.231426)" fill="#e4e4e4" stroke="#212121" stroke-width="7"/><path d="M113.11797,122.21931c-5.71955,0-10.35617-7.48831-10.35617-16.72562v-61.02488c0-9.2373,4.63661-16.72561,10.35617-16.72561h73.76406c5.71955,0,10.35617,7.48831,10.35617,16.72561v61.02488c0,9.2373-4.63661,16.72562-10.35617,16.72562h-73.76406Z" transform="translate(85.377819 69.039008)" fill="#e4e4e4" stroke="#212121" stroke-width="7"/><path d="M113.11797,122.21931c-5.71955,0-10.35617-7.48831-10.35617-16.72562v-61.02488c0-9.2373,4.63661-16.72561,10.35617-16.72561h73.76406c5.71955,0,10.35617,7.48831,10.35617,16.72561v61.02488c0,9.2373-4.63661,16.72562-10.35617,16.72562h-73.76406Z" transform="translate(-48.838636 0.806064)" fill="#536aec" stroke="#212121" stroke-width="7"/><line x1="-47.425648" y1="-0.187454" x2="47.425648" y2="0.187453" transform="matrix(1.041528 0 0 1 100.973916 46.907253)" fill="none" stroke="#212121" stroke-width="5"/><line x1="-47.425648" y1="-0.187454" x2="49.424352" y2="0.187453" transform="matrix(1.01778 0 0 1 65.652857 194.370139)" fill="none" stroke="#212121" stroke-width="5"/><line x1="-47.425648" y1="-0.187454" x2="47.425648" y2="0.187453" transform="translate(235.190371 115.579268)" fill="none" stroke="#212121" stroke-width="5"/></svg>
